<svg width="444" height="348" viewBox="0 0 444 348" fill="none" xmlns="http://www.w3.org/2000/svg">
<path d="M443.463 195.539C443.463 279.705 375.234 347.935 291.068 347.935L291.068 195.539L443.463 195.539ZM291.067 -6.66142e-06C375.233 -1.03404e-05 443.463 68.2306 443.463 152.396L291.067 152.396C206.901 152.396 138.671 84.1657 138.671 0L291.067 -6.66142e-06ZM138.671 347.935C138.671 263.769 206.901 195.539 291.067 195.539L291.067 347.935L138.671 347.935Z" fill="#1C4921"/>
<rect width="65.0469" height="65.047" rx="32.5235" transform="matrix(1 8.74228e-08 8.74228e-08 -1 64.4709 270.13)" fill="#ED5428"/>
<rect width="65.0469" height="65.047" rx="32.5235" transform="matrix(1 8.74228e-08 8.74228e-08 -1 64.4709 141.189)" fill="#ED5428"/>
<rect width="65.0469" height="65.047" rx="32.5235" transform="matrix(1 8.74228e-08 8.74228e-08 -1 0 205.659)" fill="#ED5428"/>
<rect width="65.0469" height="65.047" rx="32.5235" transform="matrix(1 8.74228e-08 8.74228e-08 -1 128.942 205.659)" fill="#ED5428"/>
</svg>
