<svg width="1012" height="182" viewBox="0 0 1012 182" fill="none" xmlns="http://www.w3.org/2000/svg">
<path d="M72.2439 181.264C72.2439 137.416 107.79 101.869 151.637 101.869L151.637 101.87L231.031 101.87C231.031 145.375 196.039 180.707 152.664 181.257L151.637 181.264L72.2439 181.264ZM151.637 -3.4704e-06C195.485 6.98284e-06 231.031 35.5457 231.031 79.3935L151.637 79.3936C107.79 79.3936 72.2439 43.8479 72.2439 0L151.637 -3.4704e-06Z" fill="white"/>
<rect width="33.8875" height="33.8875" rx="16.9437" transform="matrix(1 8.74228e-08 8.74228e-08 -1 33.5872 140.729)" fill="#ED5428"/>
<rect width="33.8875" height="33.8875" rx="16.9437" transform="matrix(1 8.74228e-08 8.74228e-08 -1 33.5872 73.5551)" fill="#ED5428"/>
<rect width="33.8875" height="33.8875" rx="16.9437" transform="matrix(1 8.74228e-08 8.74228e-08 -1 0 107.142)" fill="#ED5428"/>
<rect width="33.8875" height="33.8875" rx="16.9437" transform="matrix(1 8.74228e-08 8.74228e-08 -1 67.1746 107.142)" fill="#ED5428"/>
<path d="M450.451 59.1904C463.395 59.1905 473.102 62.2319 479.574 68.3154C486.046 74.2695 489.282 83.0715 489.282 94.7207V160.15H472.002V140.735C469.672 147.595 465.53 152.902 459.576 156.655C453.622 160.279 446.374 162.092 437.831 162.092C427.735 162.092 419.71 159.632 413.756 154.714C407.802 149.666 404.825 142.871 404.825 134.328C404.825 125.526 407.932 118.602 414.145 113.554C420.487 108.376 429.547 104.881 441.326 103.069L469.479 98.5439V93.9434C469.478 87.6011 467.86 82.8769 464.624 79.7705C461.518 76.5347 456.535 74.9171 449.675 74.917C443.074 74.917 437.766 76.2111 433.754 78.7998C429.871 81.3885 427.605 85.0772 426.958 89.8662H407.737C408.643 80.5469 412.85 73.1048 420.357 67.5391C427.865 61.9733 437.896 59.1904 450.451 59.1904ZM535.566 61.1318H563.719V77.2461H535.566V130.444C535.566 135.622 536.926 139.44 539.644 141.899C542.362 144.359 546.762 145.589 552.846 145.589C555.175 145.589 557.247 145.394 559.059 145.006C560.871 144.618 562.424 144.165 563.719 143.647V159.956C562.295 160.603 560.289 161.121 557.7 161.51C555.111 161.898 552.199 162.092 548.963 162.092C537.443 162.092 528.965 159.439 523.528 154.132C518.222 148.696 515.568 140.735 515.568 130.251V77.2461H495.765V61.1318H515.568V38.415L535.566 30.8438V61.1318ZM616.006 59.1904C628.949 59.1904 638.658 62.2319 645.13 68.3154C651.601 74.2695 654.837 83.0716 654.837 94.7207V160.15H637.558V140.735C635.228 147.595 631.086 152.902 625.132 156.655C619.178 160.279 611.929 162.092 603.386 162.092C593.29 162.092 585.265 159.632 579.311 154.714C573.357 149.666 570.38 142.871 570.38 134.328C570.38 125.527 573.486 118.602 579.699 113.554C586.042 108.376 595.102 104.881 606.881 103.069L635.033 98.5439V93.9434C635.033 87.6012 633.415 82.8769 630.18 79.7705C627.073 76.5346 622.09 74.917 615.229 74.917C608.628 74.917 603.321 76.2111 599.309 78.7998C595.426 81.3885 593.161 85.0773 592.514 89.8662H573.292C574.198 80.547 578.405 73.1048 585.912 67.5391C593.419 61.9733 603.451 59.1905 616.006 59.1904ZM964.66 59.1904C974.238 59.1904 982.522 61.2614 989.512 65.4033C996.631 69.4158 1002.07 75.0456 1005.82 82.2939C1009.7 89.5424 1011.65 98.1506 1011.65 108.117C1011.65 109.67 1011.58 111.159 1011.45 112.583C1011.45 113.877 1011.32 115.237 1011.06 116.66H935.055C935.878 124.996 938.433 131.727 942.721 136.852C948.157 143.194 955.664 146.365 965.242 146.365C971.067 146.365 976.115 145.201 980.387 142.871C984.658 140.412 987.829 136.852 989.9 132.192H1008.93C1005.69 141.512 1000.19 148.825 992.424 154.132C984.787 159.439 975.597 162.092 964.854 162.092C954.888 162.092 946.086 159.891 938.449 155.49C930.942 151.089 925.053 145.006 920.781 137.24C916.51 129.474 914.374 120.543 914.374 110.447C914.374 100.222 916.445 91.2901 920.587 83.6533C924.858 75.8872 930.813 69.8681 938.449 65.5967C946.086 61.3254 954.823 59.1904 964.66 59.1904ZM321.121 20.3594C336.136 20.3594 349.209 23.2071 360.341 28.9023C371.472 34.5975 380.08 42.6868 386.163 53.1709C392.376 63.5257 395.482 75.7578 395.482 89.8662C395.482 103.975 392.376 116.336 386.163 126.95C379.95 137.434 371.278 145.588 360.146 151.413C349.144 157.238 336.201 160.15 321.315 160.15H272V20.3594H321.121ZM709.628 137.993L737.518 61.1318H758.292L718.103 160.15H700.24L659.856 61.1318H681.407L709.628 137.993ZM787.699 160.15H767.507V61.1318H787.699V160.15ZM866.331 59.1904C876.945 59.1904 885.293 62.1671 891.377 68.1211C897.46 74.0751 900.503 81.9706 900.503 91.8076V160.15H880.505V96.4678C880.505 89.6078 878.757 84.4952 875.263 81.1299C871.897 77.7645 866.849 76.0811 860.118 76.0811C854.294 76.0811 849.116 77.3762 844.586 79.9648C840.185 82.5535 836.69 86.1125 834.102 90.6426C831.642 95.1728 830.413 100.545 830.413 106.758V160.15H810.221V61.1318H829.442V79.8955C832.64 74.0023 837.105 69.2355 842.839 65.5967C849.569 61.3255 857.4 59.1905 866.331 59.1904ZM444.433 116.66C437.831 117.696 432.848 119.443 429.482 121.902C426.247 124.362 424.629 127.921 424.629 132.58C424.629 137.11 426.117 140.541 429.094 142.871C432.2 145.071 436.666 146.171 442.49 146.171C450.256 146.171 456.664 144.295 461.712 140.541C466.889 136.787 469.479 132.062 469.479 126.367V112.704L444.433 116.66ZM609.987 116.66C603.386 117.696 598.402 119.443 595.037 121.902C591.802 124.362 590.184 127.921 590.184 132.58C590.184 137.11 591.672 140.541 594.649 142.871C597.756 145.071 602.221 146.171 608.046 146.171C615.812 146.171 622.22 144.295 627.268 140.541C632.445 136.787 635.033 132.062 635.033 126.367V112.705L609.987 116.66ZM292.581 143.064H321.121C332.253 143.064 341.767 140.8 349.662 136.27C357.687 131.739 363.835 125.461 368.106 117.437C372.378 109.412 374.514 100.092 374.514 89.4785C374.514 78.9942 372.378 69.8687 368.106 62.1025C363.964 54.3364 357.881 48.3173 349.856 44.0459C341.961 39.6451 332.382 37.4443 321.121 37.4443H292.581V143.064ZM964.66 74.917C955.47 74.917 948.157 78.0875 942.721 84.4297C938.929 88.8691 936.493 94.5649 935.41 101.516H991.557C990.795 93.8106 988.497 87.7271 984.658 83.2656C979.869 77.6999 973.203 74.917 964.66 74.917ZM777.7 19C783.866 19.0001 788.864 23.9985 788.864 30.1641V30.5518C788.864 36.7173 783.866 41.7157 777.7 41.7158C771.535 41.7158 766.536 36.7174 766.536 30.5518V30.1641C766.536 23.9984 771.535 19 777.7 19Z" fill="#FDF8F2"/>
</svg>
